<svg width="1308" height="3550" fill="none" xmlns="http://www.w3.org/2000/svg"><g clip-rule="evenodd"><path d="M216.562 338.754L191 324.913 212.298 310l4.264 28.754z" stroke="#939393" stroke-width="2"/><path d="M373.603 135.437l23.477-.231-9.205 18.874-14.272-18.643zM818.928 375.16l-9.712 21.376L796 380.216l22.928-5.056zM171.702 59.889l-5.853 22.737L150 68.85l21.702-8.96zM1293.87 1885.53l-7.25 28.15-19.62-17.06 26.87-11.09zM698.702 3501.89l-5.853 22.74L677 3510.85l21.702-8.96z" stroke="#EFA159" stroke-width="3"/><path d="M1141.27 3013.59l23.46-1.05-8.55 19.19-14.91-18.14z" stroke="#939393" stroke-width="2"/><path d="M85 219c7.18 0 13-5.82 13-13s-5.82-13-13-13-13 5.82-13 13 5.82 13 13 13zm193 383c7.18 0 13-5.82 13-13s-5.82-13-13-13-13 5.82-13 13 5.82 13 13 13zm947.5 1322c5.8 0 10.5-4.7 10.5-10.5s-4.7-10.5-10.5-10.5-10.5 4.7-10.5 10.5 4.7 10.5 10.5 10.5zM1107 3068c7.18 0 13-5.82 13-13s-5.82-13-13-13-13 5.82-13 13 5.82 13 13 13z" stroke="#86AEF0" stroke-width="3"/><path d="M612 3549a5.001 5.001 0 000-10 5.001 5.001 0 000 10zm24.5-3091a6.5 6.5 0 100-13 6.5 6.5 0 000 13zM7.5 14a6.5 6.5 0 100-13 6.5 6.5 0 000 13z" stroke="#939393" stroke-width="2"/></g></svg>